<svg xmlns="http://www.w3.org/2000/svg" viewBox="0 0 512 512"><path d="M406.069 114.759C388.413 17.655 300.138 0 256 0S123.586 17.655 105.931 114.759s-44.138 220.69-44.138 220.69C150.069 406.07 229.517 406.07 256 406.07s105.931 0 194.207-70.621c0-.001-26.483-123.587-44.138-220.69z" fill="#ff9842"/><path d="M282.22 1.949C272.579.584 263.607 0 256 0c-44.138 0-132.414 17.655-150.069 114.759s-44.138 220.69-44.138 220.69c58.067 46.454 112.204 62.28 150.069 67.72V176.552s7.5-126.655 70.358-174.603z" fill="#e6873c"/><path d="M300.138 326.621v30.82c0 7.883 5.226 14.81 12.804 16.975l73.226 20.921a61.796 61.796 0 0143.977 49.257l7.808 46.847c1.793 10.762-6.505 20.558-17.415 20.558H91.461c-10.91 0-19.209-9.796-17.415-20.557l7.808-46.847a61.793 61.793 0 0143.977-49.257l73.226-20.921a17.655 17.655 0 0012.804-16.975v-30.821h88.277z" fill="#ff6472"/><path d="M256 476.69c54.771 0 101.148-35.665 117.362-85.01l-60.419-17.263a17.654 17.654 0 01-12.804-16.975v-30.82h-88.276v30.82c0 7.883-5.226 14.81-12.804 16.975L138.64 391.68c16.212 49.345 62.589 85.01 117.36 85.01z" fill="#fad7a5"/><path d="M300.138 335.448l-24.276-8.828h-64v30.82c0 7.883-5.226 14.81-12.804 16.975l-18.71 5.345v.001c74.416 35.49 119.79-44.313 119.79-44.313z" fill="#f0c891"/><g fill="#d25566"><path d="M100.725 409.69c-9.753 9.111-16.59 21.223-18.87 34.905l-7.808 46.847C72.253 502.204 80.551 512 91.461 512h49.78v-30.282a44.14 44.14 0 00-7.919-25.226l-32.597-46.802zM411.275 409.69c9.753 9.111 16.59 21.223 18.87 34.905l7.808 46.847c1.793 10.761-6.505 20.557-17.415 20.557h-49.78v-30.282a44.14 44.14 0 017.919-25.226l32.598-46.801z"/></g><path d="M388.413 203.034v-79.448H123.586v79.448c-9.75 0-17.655 7.904-17.655 17.655v17.655c0 9.75 7.905 17.655 17.655 17.655.487 0 .943-.105 1.42-.143 5.282 29.652 25.44 55.026 54.07 66.477l44.138 17.655a88.28 88.28 0 0065.57 0l44.138-17.655c28.631-11.452 48.789-36.825 54.07-66.477.477.039.934.143 1.42.143 9.75 0 17.655-7.905 17.655-17.655V220.69c.002-9.752-7.904-17.656-17.654-17.656z" fill="#ffe1b4"/><path d="M123.586 123.586v79.448c-9.75 0-17.655 7.904-17.655 17.655v17.655c0 9.75 7.905 17.655 17.655 17.655.487 0 .943-.105 1.42-.143 5.282 29.652 25.44 55.026 54.07 66.477l44.138 17.655c9.963 3.986 20.472 6.018 31.009 6.23-29.95-13.291-52.14-34.766-66.545-52.321-12.942-15.775-19.955-35.525-19.955-55.93v-29.705c0-8.936 6.677-16.462 15.549-17.529l74.382-8.94 4.966 20.966s67.862-11.034 98.483-23.724l18.483-37.793v-17.655h-256z" fill="#fad7a5"/><path d="M256 300.138c-15.694 0-30.375-3.862-40.276-10.599-4.03-2.741-5.078-8.233-2.332-12.263 2.737-4.025 8.233-5.074 12.263-2.332 6.94 4.719 18.284 7.539 30.345 7.539s23.405-2.819 30.345-7.539c4.039-2.745 9.522-1.703 12.263 2.332 2.745 4.03 1.698 9.522-2.332 12.263-9.902 6.737-24.582 10.599-40.276 10.599z" fill="#d7af7d"/><g fill="#5a4137"><path d="M189.793 238.345c-7.313 0-13.241-5.929-13.241-13.241v-8.828c0-7.313 5.929-13.241 13.241-13.241 7.313 0 13.241 5.929 13.241 13.241v8.828c0 7.312-5.929 13.241-13.241 13.241zM322.207 238.345c-7.313 0-13.241-5.929-13.241-13.241v-8.828c0-7.313 5.929-13.241 13.241-13.241 7.313 0 13.241 5.929 13.241 13.241v8.828c0 7.312-5.929 13.241-13.241 13.241z"/></g><path d="M123.586 203.034c0-8.828 0-35.31 26.483-70.621l8.828 44.138 88.276-8.828 17.655-26.483 8.828 44.138s72.276-13.241 79.448-17.655l17.655-26.483s17.655 26.483 17.655 61.793h17.655l1.628-62.521c.389-14.944-11.661-27.249-26.61-27.171l-248.809 1.281c-14.573.075-26.347 11.91-26.347 26.483v61.929h17.655z" fill="#ff9842"/><g fill="#ff6472"><path d="M358.177 94.489l-66.325 2.802c-4.884.206-7.969-5.249-6.15-10.874L300.131 41.8c1.82-5.626 7.513-8.243 11.352-5.215l52.126 41.107-5.432 16.797zM371.772 98.886l52.126 41.107c3.839 3.027 9.533.412 11.352-5.215l14.429-44.617c1.82-5.626-1.265-11.081-6.15-10.874l-66.325 2.802-5.432 16.797z"/></g><path d="M416.728 108.786L315.936 76.192c-2.322-.75-3.592-3.236-2.841-5.558s3.236-3.592 5.558-2.841l100.792 32.594a4.41 4.41 0 012.841 5.558 4.412 4.412 0 01-5.558 2.841z" fill="#c95264"/><path d="M370.658 107.804l-16.799-5.432a8.827 8.827 0 01-5.683-11.115l5.432-16.799a8.827 8.827 0 0111.115-5.683l16.799 5.432a8.827 8.827 0 015.683 11.115l-5.432 16.799a8.828 8.828 0 01-11.115 5.683z" fill="#a5465a"/><path d="M125.831 395.339c-1.409.403-2.722.994-4.085 1.491l.119.362c19.094 58.11 72.999 97.153 134.134 97.153s115.04-39.043 134.135-97.153l.119-.362c-1.363-.495-2.677-1.088-4.086-1.491l-12.807-3.659c-16.213 49.345-62.59 85.01-117.36 85.01s-101.148-35.665-117.362-85.01l-12.807 3.659z" fill="#d25566"/><path d="M221.732 114.162l-89.455.46c-14.572.076-26.346 11.911-26.346 26.483v61.93h17.655c0-8.828 0-35.31 26.483-70.621l8.828 44.138 53.394-5.34c.875-9.645 3.358-31.482 9.441-57.05z" fill="#e6873c"/></svg>